<mxfile host="app.diagrams.net" modified="2023-04-21T00:44:42.087Z" agent="Mozilla/5.0 (Windows NT 10.0; Win64; x64) AppleWebKit/537.36 (KHTML, like Gecko) Chrome/112.0.0.0 Safari/537.36" etag="KWyGztfigN21R_TIdVrP" version="21.2.1" type="github">
  <diagram id="prtHgNgQTEPvFCAcTncT" name="Page-1">
    <mxGraphModel dx="1114" dy="616" grid="1" gridSize="10" guides="1" tooltips="1" connect="1" arrows="1" fold="1" page="1" pageScale="1" pageWidth="827" pageHeight="1169" math="0" shadow="0">
      <root>
        <mxCell id="0" />
        <mxCell id="1" parent="0" />
        <mxCell id="AdGD4k3Seevcw2TsVGl2-2" value="&lt;ul&gt;&lt;li&gt;SEPARAR INGREDIENTES&lt;/li&gt;&lt;li&gt;MISTURAR INGREDINETES&amp;nbsp;&lt;/li&gt;&lt;li&gt;ASSAR INGREDINETES&amp;nbsp;&lt;/li&gt;&lt;li&gt;AGUARDAR TEMPO DE FORNO&lt;/li&gt;&lt;li&gt;RETIRAR DO FORNO&amp;nbsp;&lt;/li&gt;&lt;li&gt;SERVIR APOS 15 MIN&amp;nbsp;&amp;nbsp;&lt;/li&gt;&lt;li&gt;&lt;br&gt;&lt;/li&gt;&lt;li&gt;&lt;span style=&quot;background-color: initial;&quot;&gt;&lt;br&gt;&lt;/span&gt;&lt;/li&gt;&lt;li&gt;&lt;span style=&quot;background-color: initial;&quot;&gt;&lt;br&gt;&lt;/span&gt;&lt;/li&gt;&lt;/ul&gt;" style="text;strokeColor=none;fillColor=none;html=1;whiteSpace=wrap;verticalAlign=middle;overflow=hidden;" vertex="1" parent="1">
          <mxGeometry x="540" y="30" width="250" height="270" as="geometry" />
        </mxCell>
        <mxCell id="AdGD4k3Seevcw2TsVGl2-6" value="" style="edgeStyle=orthogonalEdgeStyle;rounded=0;orthogonalLoop=1;jettySize=auto;html=1;" edge="1" parent="1" target="AdGD4k3Seevcw2TsVGl2-5">
          <mxGeometry relative="1" as="geometry">
            <mxPoint x="390" y="260" as="sourcePoint" />
          </mxGeometry>
        </mxCell>
        <mxCell id="AdGD4k3Seevcw2TsVGl2-8" value="" style="edgeStyle=orthogonalEdgeStyle;rounded=0;orthogonalLoop=1;jettySize=auto;html=1;" edge="1" parent="1" source="AdGD4k3Seevcw2TsVGl2-5">
          <mxGeometry relative="1" as="geometry">
            <mxPoint x="390" y="480" as="targetPoint" />
          </mxGeometry>
        </mxCell>
        <mxCell id="AdGD4k3Seevcw2TsVGl2-10" value="" style="edgeStyle=orthogonalEdgeStyle;rounded=0;orthogonalLoop=1;jettySize=auto;html=1;" edge="1" parent="1" source="AdGD4k3Seevcw2TsVGl2-5" target="AdGD4k3Seevcw2TsVGl2-9">
          <mxGeometry relative="1" as="geometry" />
        </mxCell>
        <mxCell id="AdGD4k3Seevcw2TsVGl2-5" value="MISTURAR INGREDIENTES em uma vasilha&amp;nbsp; ate virar uma massa" style="rounded=1;whiteSpace=wrap;html=1;" vertex="1" parent="1">
          <mxGeometry x="330" y="340" width="120" height="60" as="geometry" />
        </mxCell>
        <mxCell id="AdGD4k3Seevcw2TsVGl2-12" value="" style="edgeStyle=orthogonalEdgeStyle;rounded=0;orthogonalLoop=1;jettySize=auto;html=1;" edge="1" parent="1" source="AdGD4k3Seevcw2TsVGl2-9" target="AdGD4k3Seevcw2TsVGl2-11">
          <mxGeometry relative="1" as="geometry" />
        </mxCell>
        <mxCell id="AdGD4k3Seevcw2TsVGl2-9" value="untar uma assadeira e despejatra massa nela&amp;nbsp;" style="whiteSpace=wrap;html=1;rounded=1;" vertex="1" parent="1">
          <mxGeometry x="330" y="480" width="120" height="60" as="geometry" />
        </mxCell>
        <mxCell id="AdGD4k3Seevcw2TsVGl2-14" value="" style="edgeStyle=orthogonalEdgeStyle;rounded=0;orthogonalLoop=1;jettySize=auto;html=1;" edge="1" parent="1" source="AdGD4k3Seevcw2TsVGl2-11" target="AdGD4k3Seevcw2TsVGl2-13">
          <mxGeometry relative="1" as="geometry" />
        </mxCell>
        <mxCell id="AdGD4k3Seevcw2TsVGl2-11" value="ligar o forno&amp;nbsp; e inserir assadeira com a massa&amp;nbsp;" style="whiteSpace=wrap;html=1;rounded=1;" vertex="1" parent="1">
          <mxGeometry x="330" y="620" width="120" height="60" as="geometry" />
        </mxCell>
        <mxCell id="AdGD4k3Seevcw2TsVGl2-22" value="" style="edgeStyle=orthogonalEdgeStyle;rounded=0;orthogonalLoop=1;jettySize=auto;html=1;" edge="1" parent="1" source="AdGD4k3Seevcw2TsVGl2-13" target="AdGD4k3Seevcw2TsVGl2-21">
          <mxGeometry relative="1" as="geometry" />
        </mxCell>
        <mxCell id="AdGD4k3Seevcw2TsVGl2-13" value="aguardar 40 min para assar&amp;nbsp;" style="whiteSpace=wrap;html=1;rounded=1;" vertex="1" parent="1">
          <mxGeometry x="330" y="760" width="120" height="60" as="geometry" />
        </mxCell>
        <mxCell id="AdGD4k3Seevcw2TsVGl2-15" value="separar ingredientes" style="whiteSpace=wrap;html=1;" vertex="1" parent="1">
          <mxGeometry x="330" y="200" width="120" height="60" as="geometry" />
        </mxCell>
        <mxCell id="AdGD4k3Seevcw2TsVGl2-24" value="" style="edgeStyle=orthogonalEdgeStyle;rounded=0;orthogonalLoop=1;jettySize=auto;html=1;" edge="1" parent="1" source="AdGD4k3Seevcw2TsVGl2-21" target="AdGD4k3Seevcw2TsVGl2-23">
          <mxGeometry relative="1" as="geometry" />
        </mxCell>
        <mxCell id="AdGD4k3Seevcw2TsVGl2-21" value="desligar o forno e" style="whiteSpace=wrap;html=1;rounded=1;" vertex="1" parent="1">
          <mxGeometry x="530" y="760" width="120" height="60" as="geometry" />
        </mxCell>
        <mxCell id="AdGD4k3Seevcw2TsVGl2-29" style="edgeStyle=orthogonalEdgeStyle;rounded=0;orthogonalLoop=1;jettySize=auto;html=1;exitX=0.5;exitY=0;exitDx=0;exitDy=0;entryX=0.5;entryY=1;entryDx=0;entryDy=0;" edge="1" parent="1" source="AdGD4k3Seevcw2TsVGl2-23" target="AdGD4k3Seevcw2TsVGl2-25">
          <mxGeometry relative="1" as="geometry" />
        </mxCell>
        <mxCell id="AdGD4k3Seevcw2TsVGl2-23" value="retirar a forma do forno&amp;nbsp;" style="whiteSpace=wrap;html=1;rounded=1;" vertex="1" parent="1">
          <mxGeometry x="530" y="620" width="120" height="60" as="geometry" />
        </mxCell>
        <mxCell id="AdGD4k3Seevcw2TsVGl2-25" value="" style="ellipse;html=1;shape=endState;fillColor=#000000;strokeColor=#ff0000;" vertex="1" parent="1">
          <mxGeometry x="575" y="530" width="30" height="30" as="geometry" />
        </mxCell>
        <mxCell id="AdGD4k3Seevcw2TsVGl2-27" value="" style="ellipse;html=1;shape=startState;fillColor=#000000;strokeColor=#ff0000;" vertex="1" parent="1">
          <mxGeometry x="375" y="100" width="30" height="40" as="geometry" />
        </mxCell>
        <mxCell id="AdGD4k3Seevcw2TsVGl2-28" value="" style="edgeStyle=orthogonalEdgeStyle;html=1;verticalAlign=bottom;endArrow=open;endSize=8;strokeColor=#ff0000;rounded=0;" edge="1" source="AdGD4k3Seevcw2TsVGl2-27" parent="1">
          <mxGeometry relative="1" as="geometry">
            <mxPoint x="390" y="200" as="targetPoint" />
          </mxGeometry>
        </mxCell>
      </root>
    </mxGraphModel>
  </diagram>
</mxfile>
